:FULLY-SPECIFIED
:FORCE-ALL-JOINTS-BE-3DOF
:DEGREES
1019
root 1.33257 15.2862 32.7275 5.67658 -3.23811 364.023
lfemur 5.95093 0.687947 3.59703
ltibia 4.78253 0 0
lfoot -31.6985 -12.3918 0
ltoes -32.4672 0 0
rfemur -30.2788 -12.6487 -7.59571
rtibia 48.5334 0 0
rfoot -18.9017 2.20227 0
rtoes -42.443 0 0
lowerback -2.69113 -0.456573 -0.519765
upperback -0.945995 -0.558939 -6.52769
thorax 0.465826 -0.293443 -6.51037
lowerneck -7.29628 0.616855 4.93641
upperneck 2.15432 0.201112 3.8592
head 1.92478 0.252201 0.385946
lclavicle 1.34754e-15 -9.22793e-15 0
lhumerus -58.5917 -45.2694 113.59
lradius 55.6469 0 0
lwrist 25.6498 0 0
lhand 39.4177 24.834 0
lfingers 7.12502 0 0
lthumb 61.893 36.3232 0
rclavicle 1.34754e-15 -9.22793e-15 0
rhumerus -0.617518 -9.52045 -3.14195
rradius 34.0976 0 0
rwrist -12.7893 0 0
rhand -24.3091 -39.7611 0
rfingers 7.12502 0 0
rthumb 2.1776 -789.627 0
1020
root 1.33163 15.2844 32.7269 5.66738 -3.24349 364.011
lfemur 5.97297 0.689705 3.61839
ltibia 4.76684 0 0
lfoot -31.709 -12.3617 0
ltoes -32.4943 0 0
rfemur -30.2802 -12.6815 -7.57821
rtibia 48.5461 0 0
rfoot -18.9449 2.24232 0
rtoes -42.4227 0 0
lowerback -2.6826 -0.450395 -0.520562
upperback -0.939588 -0.550655 -6.51861
thorax 0.468693 -0.289105 -6.49986
lowerneck -7.30062 0.617132 4.95658
upperneck 2.15475 0.199272 3.86015
head 1.92574 0.251568 0.382782
lclavicle 1.34078e-15 -8.56802e-15 0
lhumerus -58.5873 -45.2899 113.617
lradius 55.6471 0 0
lwrist 25.6488 0 0
lhand 39.392 24.8421 0
lfingers 7.12502 0 0
lthumb 61.8715 36.3583 0
rclavicle 1.34078e-15 -8.56802e-15 0
rhumerus -0.580039 -9.71615 -3.08833
rradius 34.0004 0 0
rwrist -12.7326 0 0
rhand -24.4022 -39.7822 0
rfingers 7.12502 0 0
rthumb 2.08773 -789.65 0
1021
root 1.33068 15.2827 32.7262 5.65818 -3.24888 363.998
lfemur 5.99501 0.691464 3.63974
ltibia 4.75115 0 0
lfoot -31.7195 -12.3316 0
ltoes -32.5214 0 0
rfemur -30.2816 -12.7143 -7.56071
rtibia 48.5588 0 0
rfoot -18.9881 2.28238 0
rtoes -42.4023 0 0
lowerback -2.67406 -0.444217 -0.521359
upperback -0.93318 -0.542371 -6.50953
thorax 0.471559 -0.284766 -6.48936
lowerneck -7.30496 0.61741 4.97674
upperneck 2.15518 0.197433 3.86111
head 1.9267 0.250934 0.379619
lclavicle 1.33402e-15 -7.90811e-15 0
lhumerus -58.583 -45.3105 113.643
lradius 55.6473 0 0
lwrist 25.6477 0 0
lhand 39.3662 24.8503 0
lfingers 7.12502 0 0
lthumb 61.8501 36.3933 0
rclavicle 1.33402e-15 -7.90811e-15 0
rhumerus -0.542559 -9.91184 -3.03471
rradius 33.9032 0 0
rwrist -12.6759 0 0
rhand -24.4953 -39.8033 0
rfingers 7.12502 0 0
rthumb 1.99785 -789.672 0
1022
root 1.32973 15.281 32.7256 5.64898 -3.25426 363.985
lfemur 6.01705 0.693222 3.6611
ltibia 4.73546 0 0
lfoot -31.73 -12.3015 0
ltoes -32.5485 0 0
rfemur -30.2831 -12.7471 -7.54321
rtibia 48.5715 0 0
rfoot -19.0313 2.32243 0
rtoes -42.382 0 0
lowerback -2.66552 -0.43804 -0.522157
upperback -0.926773 -0.534087 -6.50044
thorax 0.474426 -0.280427 -6.47886
lowerneck -7.3093 0.617688 4.9969
upperneck 2.15561 0.195593 3.86206
head 1.92766 0.2503 0.376455
lclavicle 1.32726e-15 -7.2482e-15 0
lhumerus -58.5787 -45.331 113.67
lradius 55.6476 0 0
lwrist 25.6467 0 0
lhand 39.3405 24.8584 0
lfingers 7.12502 0 0
lthumb 61.8287 36.4283 0
rclavicle 1.32726e-15 -7.2482e-15 0
rhumerus -0.50508 -10.1075 -2.98108
rradius 33.806 0 0
rwrist -12.6192 0 0
rhand -24.5883 -39.8245 0
rfingers 7.12502 0 0
rthumb 1.90798 -789.694 0
1023
root 1.32878 15.2793 32.7249 5.63978 -3.25964 363.973
lfemur 6.0391 0.694981 3.68246
ltibia 4.71977 0 0
lfoot -31.7405 -12.2713 0
ltoes -32.5756 0 0
rfemur -30.2845 -12.7799 -7.52571
rtibia 48.5841 0 0
rfoot -19.0745 2.36248 0
rtoes -42.3617 0 0
lowerback -2.65698 -0.431862 -0.522954
upperback -0.920366 -0.525802 -6.49136
thorax 0.477292 -0.276089 -6.46836
lowerneck -7.31364 0.617966 5.01707
upperneck 2.15604 0.193754 3.86301
head 1.92862 0.249667 0.373292
lclavicle 1.3205e-15 -6.58829e-15 0
lhumerus -58.5743 -45.3515 113.696
lradius 55.6478 0 0
lwrist 25.6456 0 0
lhand 39.3148 24.8666 0
lfingers 7.12502 0 0
lthumb 61.8073 36.4634 0
rclavicle 1.3205e-15 -6.58829e-15 0
rhumerus -0.4676 -10.3032 -2.92746
rradius 33.7089 0 0
rwrist -12.5625 0 0
rhand -24.6814 -39.8456 0
rfingers 7.12502 0 0
rthumb 1.8181 -789.716 0
1024
root 1.32783 15.2776 32.7243 5.63058 -3.26503 363.96
lfemur 6.06114 0.696739 3.70382
ltibia 4.70408 0 0
lfoot -31.751 -12.2412 0
ltoes -32.6027 0 0
rfemur -30.286 -12.8127 -7.50822
rtibia 48.5968 0 0
rfoot -19.1178 2.40253 0
rtoes -42.3413 0 0
lowerback -2.64845 -0.425684 -0.523752
upperback -0.913958 -0.517518 -6.48228
thorax 0.480159 -0.27175 -6.45786
lowerneck -7.31798 0.618243 5.03723
upperneck 2.15646 0.191914 3.86397
head 1.92958 0.249033 0.370128
lclavicle 1.31373e-15 -5.92837e-15 0
lhumerus -58.57 -45.3721 113.723
lradius 55.648 0 0
lwrist 25.6446 0 0
lhand 39.289 24.8747 0
lfingers 7.12502 0 0
lthumb 61.7858 36.4984 0
rclavicle 1.31373e-15 -5.92837e-15 0
rhumerus -0.43012 -10.4989 -2.87383
rradius 33.6117 0 0
rwrist -12.5058 0 0
rhand -24.7745 -39.8667 0
rfingers 7.12502 0 0
rthumb 1.72823 -789.739 0
1025
root 1.32689 15.2758 32.7236 5.62138 -3.27041 363.948
lfemur 6.08318 0.698498 3.72517
ltibia 4.6884 0 0
lfoot -31.7615 -12.2111 0
ltoes -32.6298 0 0
rfemur -30.2874 -12.8455 -7.49072
rtibia 48.6095 0 0
rfoot -19.161 2.44258 0
rtoes -42.321 0 0
lowerback -2.63991 -0.419507 -0.524549
upperback -0.907551 -0.509234 -6.4732
thorax 0.483025 -0.267411 -6.44736
lowerneck -7.32232 0.618521 5.05739
upperneck 2.15689 0.190075 3.86492
head 1.93054 0.248399 0.366965
lclavicle 1.30697e-15 -5.26846e-15 0
lhumerus -58.5657 -45.3926 113.749
lradius 55.6482 0 0
lwrist 25.6435 0 0
lhand 39.2633 24.8829 0
lfingers 7.12502 0 0
lthumb 61.7644 36.5334 0
rclavicle 1.30697e-15 -5.26846e-15 0
rhumerus -0.392641 -10.6946 -2.82021
rradius 33.5145 0 0
rwrist -12.4491 0 0
rhand -24.8676 -39.8878 0
rfingers 7.12502 0 0
rthumb 1.63835 -789.761 0
1026
root 1.32594 15.2741 32.723 5.61218 -3.27579 363.935
lfemur 6.10522 0.700256 3.74653
ltibia 4.67271 0 0
lfoot -31.772 -12.181 0
ltoes -32.6569 0 0
rfemur -30.2889 -12.8783 -7.47322
rtibia 48.6222 0 0
rfoot -19.2042 2.48264 0
rtoes -42.3007 0 0
lowerback -2.63137 -0.413329 -0.525347
upperback -0.901144 -0.50095 -6.46412
thorax 0.485891 -0.263072 -6.43686
lowerneck -7.32666 0.618799 5.07755
upperneck 2.15732 0.188235 3.86588
head 1.9315 0.247766 0.363801
lclavicle 1.30021e-15 -4.60855e-15 0
lhumerus -58.5613 -45.4131 113.775
lradius 55.6484 0 0
lwrist 25.6425 0 0
lhand 39.2376 24.891 0
lfingers 7.12502 0 0
lthumb 61.743 36.5685 0
rclavicle 1.30021e-15 -4.60855e-15 0
rhumerus -0.355161 -10.8903 -2.76659
rradius 33.4173 0 0
rwrist -12.3924 0 0
rhand -24.9606 -39.9089 0
rfingers 7.12502 0 0
rthumb 1.54848 -789.783 0
1027
root 1.32499 15.2724 32.7223 5.60298 -3.28117 363.922
lfemur 6.12726 0.702015 3.76789
ltibia 4.65702 0 0
lfoot -31.7825 -12.1508 0
ltoes -32.684 0 0
rfemur -30.2903 -12.9111 -7.45572
rtibia 48.6349 0 0
rfoot -19.2474 2.52269 0
rtoes -42.2803 0 0
lowerback -2.62284 -0.407151 -0.526144
upperback -0.894736 -0.492665 -6.45504
thorax 0.488758 -0.258734 -6.42636
lowerneck -7.331 0.619076 5.09772
upperneck 2.15775 0.186395 3.86683
head 1.93246 0.247132 0.360638
lclavicle 1.29345e-15 -3.94864e-15 0
lhumerus -58.557 -45.4337 113.802
lradius 55.6487 0 0
lwrist 25.6414 0 0
lhand 39.2119 24.8992 0
lfingers 7.12502 0 0
lthumb 61.7216 36.6035 0
rclavicle 1.29345e-15 -3.94864e-15 0
rhumerus -0.317682 -11.086 -2.71296
rradius 33.3202 0 0
rwrist -12.3358 0 0
rhand -25.0537 -39.93 0
rfingers 7.12502 0 0
rthumb 1.4586 -789.806 0
1028
root 1.32404 15.2707 32.7217 5.59378 -3.28656 363.91
lfemur 6.14931 0.703773 3.78925
ltibia 4.64133 0 0
lfoot -31.793 -12.1207 0
ltoes -32.7111 0 0
rfemur -30.2918 -12.9439 -7.43823
rtibia 48.6476 0 0
rfoot -19.2906 2.56274 0
rtoes -42.26 0 0
lowerback -2.6143 -0.400974 -0.526941
upperback -0.888329 -0.484381 -6.44595
thorax 0.491624 -0.254395 -6.41586
lowerneck -7.33534 0.619354 5.11788
upperneck 2.15818 0.184556 3.86778
head 1.93342 0.246498 0.357474
lclavicle 1.28669e-15 -3.28873e-15 0
lhumerus -58.5527 -45.4542 113.828
lradius 55.6489 0 0
lwrist 25.6404 0 0
lhand 39.1861 24.9073 0
lfingers 7.12502 0 0
lthumb 61.7002 36.6385 0
rclavicle 1.28669e-15 -3.28873e-15 0
rhumerus -0.280202 -11.2817 -2.65934
rradius 33.223 0 0
rwrist -12.2791 0 0
rhand -25.1468 -39.9511 0
rfingers 7.12502 0 0
rthumb 1.36873 -789.828 0
1029
root 1.32309 15.269 32.721 5.58458 -3.29194 363.897
lfemur 6.17135 0.705532 3.8106
ltibia 4.62564 0 0
lfoot -31.8035 -12.0906 0
ltoes -32.7382 0 0
rfemur -30.2932 -12.9767 -7.42073
rtibia 48.6603 0 0
rfoot -19.3339 2.60279 0
rtoes -42.2397 0 0
lowerback -2.60576 -0.394796 -0.527739
upperback -0.881922 -0.476097 -6.43687
thorax 0.494491 -0.250056 -6.40536
lowerneck -7.33969 0.619632 5.13804
upperneck 2.15861 0.182716 3.86874
head 1.93438 0.245865 0.354311
lclavicle 1.27993e-15 -2.62882e-15 0
lhumerus -58.5483 -45.4747 113.855
lradius 55.6491 0 0
lwrist 25.6393 0 0
lhand 39.1604 24.9154 0
lfingers 7.12502 0 0
lthumb 61.6787 36.6736 0
rclavicle 1.27993e-15 -2.62882e-15 0
rhumerus -0.242723 -11.4774 -2.60571
rradius 33.1258 0 0
rwrist -12.2224 0 0
rhand -25.2399 -39.9722 0
rfingers 7.12502 0 0
rthumb 1.27886 -789.85 0
1030
root 1.32215 15.2672 32.7204 5.57538 -3.29732 363.884
lfemur 6.19339 0.707291 3.83196
ltibia 4.60995 0 0
lfoot -31.814 -12.0605 0
ltoes -32.7653 0 0
rfemur -30.2947 -13.0095 -7.40323
rtibia 48.673 0 0
rfoot -19.3771 2.64284 0
rtoes -42.2193 0 0
lowerback -2.59722 -0.388618 -0.528536
upperback -0.875515 -0.467813 -6.42779
thorax 0.497357 -0.245718 -6.39486
lowerneck -7.34403 0.61991 5.15821
upperneck 2.15904 0.180877 3.86969
head 1.93534 0.245231 0.351148
lclavicle 1.27317e-15 -1.96891e-15 0
lhumerus -58.544 -45.4953 113.881
lradius 55.6493 0 0
lwrist 25.6383 0 0
lhand 39.1347 24.9236 0
lfingers 7.12502 0 0
lthumb 61.6573 36.7086 0
rclavicle 1.27317e-15 -1.96891e-15 0
rhumerus -0.205243 -11.6731 -2.55209
rradius 33.0286 0 0
rwrist -12.1657 0 0
rhand -25.333 -39.9933 0
rfingers 7.12502 0 0
rthumb 1.18898 -789.872 0
1031
root 1.3212 15.2655 32.7197 5.56618 -3.3027 363.872
lfemur 6.21543 0.709049 3.85332
ltibia 4.59426 0 0
lfoot -31.8245 -12.0303 0
ltoes -32.7924 0 0
rfemur -30.2961 -13.0423 -7.38573
rtibia 48.6857 0 0
rfoot -19.4203 2.6829 0
rtoes -42.199 0 0
lowerback -2.58869 -0.382441 -0.529334
upperback -0.869107 -0.459528 -6.41871
thorax 0.500224 -0.241379 -6.38436
lowerneck -7.34837 0.620187 5.17837
upperneck 2.15947 0.179037 3.87064
head 1.93631 0.244598 0.347984
lclavicle 1.26641e-15 -1.309e-15 0
lhumerus -58.5396 -45.5158 113.908
lradius 55.6495 0 0
lwrist 25.6372 0 0
lhand 39.109 24.9317 0
lfingers 7.12502 0 0
lthumb 61.6359 36.7437 0
rclavicle 1.26641e-15 -1.309e-15 0
rhumerus -0.167764 -11.8688 -2.49847
rradius 32.9315 0 0
rwrist -12.109 0 0
rhand -25.426 -40.0144 0
rfingers 7.12502 0 0
rthumb 1.09911 -789.895 0
1032
root 1.32025 15.2638 32.7191 5.55698 -3.30809 363.859
lfemur 6.23747 0.710808 3.87468
ltibia 4.57857 0 0
lfoot -31.835 -12.0002 0
ltoes -32.8195 0 0
rfemur -30.2976 -13.0751 -7.36824
rtibia 48.6984 0 0
rfoot -19.4635 2.72295 0
rtoes -42.1787 0 0
lowerback -2.58015 -0.376263 -0.530131
upperback -0.8627 -0.451244 -6.40963
thorax 0.50309 -0.23704 -6.37386
lowerneck -7.35271 0.620465 5.19853
upperneck 2.1599 0.177198 3.8716
head 1.93727 0.243964 0.344821
lclavicle 1.25964e-15 -6.49088e-16 0
lhumerus -58.5353 -45.5363 113.934
lradius 55.6498 0 0
lwrist 25.6362 0 0
lhand 39.0832 24.9399 0
lfingers 7.12502 0 0
lthumb 61.6145 36.7787 0
rclavicle 1.25964e-15 -6.49088e-16 0
rhumerus -0.130284 -12.0645 -2.44484
rradius 32.8343 0 0
rwrist -12.0523 0 0
rhand -25.5191 -40.0355 0
rfingers 7.12502 0 0
rthumb 1.00923 -789.917 0
